<mxfile host="65bd71144e">
    <diagram id="OsOB9QceUql0XnuOEPMN" name="Page-1">
        <mxGraphModel dx="893" dy="694" grid="1" gridSize="10" guides="1" tooltips="1" connect="1" arrows="1" fold="1" page="1" pageScale="1" pageWidth="850" pageHeight="1100" math="0" shadow="0">
            <root>
                <mxCell id="0"/>
                <mxCell id="1" parent="0"/>
                <mxCell id="3" value="BoardBuilder" style="swimlane;fontStyle=1;align=center;verticalAlign=top;childLayout=stackLayout;horizontal=1;startSize=26;horizontalStack=0;resizeParent=1;resizeParentMax=0;resizeLast=0;collapsible=1;marginBottom=0;strokeColor=#666666;strokeWidth=3;fontColor=#333333;fillColor=#f5f5f5;" vertex="1" parent="1">
                    <mxGeometry x="270" y="40" width="160" height="218" as="geometry">
                        <mxRectangle x="110" y="90" width="120" height="30" as="alternateBounds"/>
                    </mxGeometry>
                </mxCell>
                <mxCell id="4" value="# p: BoardAnyCar*&#10;# countOfAdults: int&#10;# countOfChildren: int&#10;# countOfBeneficiaries: int&#10;# driver: bool" style="text;strokeColor=#666666;fillColor=#f5f5f5;align=left;verticalAlign=top;spacingLeft=4;spacingRight=4;overflow=hidden;rotatable=0;points=[[0,0.5],[1,0.5]];portConstraint=eastwest;strokeWidth=3;fontColor=#333333;" vertex="1" parent="3">
                    <mxGeometry y="26" width="160" height="94" as="geometry"/>
                </mxCell>
                <mxCell id="6" value="+ CreateBoard()&#10;+ BuildAdult()&#10;+ BuildChild()&#10;+ BuildBeneficiary()&#10;+ BuildDriver()&#10;+ GetBoard()" style="text;strokeColor=#666666;fillColor=#f5f5f5;align=left;verticalAlign=top;spacingLeft=4;spacingRight=4;overflow=hidden;rotatable=0;points=[[0,0.5],[1,0.5]];portConstraint=eastwest;strokeWidth=3;fontColor=#333333;" vertex="1" parent="3">
                    <mxGeometry y="120" width="160" height="98" as="geometry"/>
                </mxCell>
                <mxCell id="8" value="Director" style="swimlane;fontStyle=1;align=center;verticalAlign=top;childLayout=stackLayout;horizontal=1;startSize=26;horizontalStack=0;resizeParent=1;resizeParentMax=0;resizeLast=0;collapsible=1;marginBottom=0;strokeColor=#666666;strokeWidth=3;fontColor=#333333;fillColor=#f5f5f5;" vertex="1" parent="1">
                    <mxGeometry x="50" y="50" width="130" height="80" as="geometry">
                        <mxRectangle x="110" y="90" width="120" height="30" as="alternateBounds"/>
                    </mxGeometry>
                </mxCell>
                <mxCell id="9" value="" style="text;strokeColor=#666666;fillColor=#f5f5f5;align=left;verticalAlign=top;spacingLeft=4;spacingRight=4;overflow=hidden;rotatable=0;points=[[0,0.5],[1,0.5]];portConstraint=eastwest;strokeWidth=3;fontColor=#333333;" vertex="1" parent="8">
                    <mxGeometry y="26" width="130" height="26" as="geometry"/>
                </mxCell>
                <mxCell id="10" value="+ CreateBoard()" style="text;strokeColor=#666666;fillColor=#f5f5f5;align=left;verticalAlign=top;spacingLeft=4;spacingRight=4;overflow=hidden;rotatable=0;points=[[0,0.5],[1,0.5]];portConstraint=eastwest;strokeWidth=3;fontColor=#333333;" vertex="1" parent="8">
                    <mxGeometry y="52" width="130" height="28" as="geometry"/>
                </mxCell>
                <mxCell id="11" value="BoardTaxiBuilder" style="swimlane;fontStyle=1;align=center;verticalAlign=top;childLayout=stackLayout;horizontal=1;startSize=26;horizontalStack=0;resizeParent=1;resizeParentMax=0;resizeLast=0;collapsible=1;marginBottom=0;strokeColor=#666666;strokeWidth=3;fontColor=#333333;fillColor=#f5f5f5;" vertex="1" parent="1">
                    <mxGeometry x="280" y="320" width="140" height="80" as="geometry">
                        <mxRectangle x="110" y="90" width="120" height="30" as="alternateBounds"/>
                    </mxGeometry>
                </mxCell>
                <mxCell id="12" value="- safetyChildSeat: bool" style="text;strokeColor=#666666;fillColor=#f5f5f5;align=left;verticalAlign=top;spacingLeft=4;spacingRight=4;overflow=hidden;rotatable=0;points=[[0,0.5],[1,0.5]];portConstraint=eastwest;strokeWidth=3;fontColor=#333333;" vertex="1" parent="11">
                    <mxGeometry y="26" width="140" height="26" as="geometry"/>
                </mxCell>
                <mxCell id="13" value="+ BuildBeneficiary()" style="text;strokeColor=#666666;fillColor=#f5f5f5;align=left;verticalAlign=top;spacingLeft=4;spacingRight=4;overflow=hidden;rotatable=0;points=[[0,0.5],[1,0.5]];portConstraint=eastwest;strokeWidth=3;fontColor=#333333;" vertex="1" parent="11">
                    <mxGeometry y="52" width="140" height="28" as="geometry"/>
                </mxCell>
                <mxCell id="14" value="BoardBusBuilder" style="swimlane;fontStyle=1;align=center;verticalAlign=top;childLayout=stackLayout;horizontal=1;startSize=26;horizontalStack=0;resizeParent=1;resizeParentMax=0;resizeLast=0;collapsible=1;marginBottom=0;strokeColor=#666666;strokeWidth=3;fontColor=#333333;fillColor=#f5f5f5;" vertex="1" parent="1">
                    <mxGeometry x="510" y="109" width="130" height="80" as="geometry">
                        <mxRectangle x="110" y="90" width="120" height="30" as="alternateBounds"/>
                    </mxGeometry>
                </mxCell>
                <mxCell id="15" value="" style="text;strokeColor=#666666;fillColor=#f5f5f5;align=left;verticalAlign=top;spacingLeft=4;spacingRight=4;overflow=hidden;rotatable=0;points=[[0,0.5],[1,0.5]];portConstraint=eastwest;strokeWidth=3;fontColor=#333333;" vertex="1" parent="14">
                    <mxGeometry y="26" width="130" height="26" as="geometry"/>
                </mxCell>
                <mxCell id="16" value="" style="text;strokeColor=#666666;fillColor=#f5f5f5;align=left;verticalAlign=top;spacingLeft=4;spacingRight=4;overflow=hidden;rotatable=0;points=[[0,0.5],[1,0.5]];portConstraint=eastwest;strokeWidth=3;fontColor=#333333;" vertex="1" parent="14">
                    <mxGeometry y="52" width="130" height="28" as="geometry"/>
                </mxCell>
                <mxCell id="17" value="BoardBus" style="swimlane;fontStyle=1;align=center;verticalAlign=top;childLayout=stackLayout;horizontal=1;startSize=26;horizontalStack=0;resizeParent=1;resizeParentMax=0;resizeLast=0;collapsible=1;marginBottom=0;strokeColor=#666666;strokeWidth=3;fontColor=#333333;fillColor=#f5f5f5;" vertex="1" parent="1">
                    <mxGeometry x="510" y="270" width="130" height="80" as="geometry">
                        <mxRectangle x="110" y="90" width="120" height="30" as="alternateBounds"/>
                    </mxGeometry>
                </mxCell>
                <mxCell id="18" value="" style="text;strokeColor=#666666;fillColor=#f5f5f5;align=left;verticalAlign=top;spacingLeft=4;spacingRight=4;overflow=hidden;rotatable=0;points=[[0,0.5],[1,0.5]];portConstraint=eastwest;strokeWidth=3;fontColor=#333333;" vertex="1" parent="17">
                    <mxGeometry y="26" width="130" height="26" as="geometry"/>
                </mxCell>
                <mxCell id="19" value="" style="text;strokeColor=#666666;fillColor=#f5f5f5;align=left;verticalAlign=top;spacingLeft=4;spacingRight=4;overflow=hidden;rotatable=0;points=[[0,0.5],[1,0.5]];portConstraint=eastwest;strokeWidth=3;fontColor=#333333;" vertex="1" parent="17">
                    <mxGeometry y="52" width="130" height="28" as="geometry"/>
                </mxCell>
                <mxCell id="21" value="BoardTaxi" style="swimlane;fontStyle=1;align=center;verticalAlign=top;childLayout=stackLayout;horizontal=1;startSize=26;horizontalStack=0;resizeParent=1;resizeParentMax=0;resizeLast=0;collapsible=1;marginBottom=0;strokeColor=#666666;strokeWidth=3;fontColor=#333333;fillColor=#f5f5f5;" vertex="1" parent="1">
                    <mxGeometry x="290" y="463" width="120" height="80" as="geometry">
                        <mxRectangle x="110" y="90" width="120" height="30" as="alternateBounds"/>
                    </mxGeometry>
                </mxCell>
                <mxCell id="22" value="" style="text;strokeColor=#666666;fillColor=#f5f5f5;align=left;verticalAlign=top;spacingLeft=4;spacingRight=4;overflow=hidden;rotatable=0;points=[[0,0.5],[1,0.5]];portConstraint=eastwest;strokeWidth=3;fontColor=#333333;" vertex="1" parent="21">
                    <mxGeometry y="26" width="120" height="26" as="geometry"/>
                </mxCell>
                <mxCell id="23" value="+ PrintInfo()" style="text;strokeColor=#666666;fillColor=#f5f5f5;align=left;verticalAlign=top;spacingLeft=4;spacingRight=4;overflow=hidden;rotatable=0;points=[[0,0.5],[1,0.5]];portConstraint=eastwest;strokeWidth=3;fontColor=#333333;" vertex="1" parent="21">
                    <mxGeometry y="52" width="120" height="28" as="geometry"/>
                </mxCell>
                <mxCell id="29" value="" style="html=1;verticalAlign=bottom;labelBackgroundColor=none;endArrow=open;endFill=0;dashed=1;rounded=0;fontColor=#000000;entryX=0.5;entryY=0;entryDx=0;entryDy=0;" edge="1" parent="1" source="13" target="21">
                    <mxGeometry width="160" relative="1" as="geometry">
                        <mxPoint x="330" y="260" as="sourcePoint"/>
                        <mxPoint x="490" y="260" as="targetPoint"/>
                    </mxGeometry>
                </mxCell>
                <mxCell id="30" value="" style="html=1;verticalAlign=bottom;labelBackgroundColor=none;endArrow=open;endFill=0;dashed=1;rounded=0;fontColor=#000000;entryX=0.5;entryY=0;entryDx=0;entryDy=0;" edge="1" parent="1" source="16" target="17">
                    <mxGeometry width="160" relative="1" as="geometry">
                        <mxPoint x="330" y="320" as="sourcePoint"/>
                        <mxPoint x="490" y="320" as="targetPoint"/>
                    </mxGeometry>
                </mxCell>
                <mxCell id="31" value="1" style="endArrow=open;html=1;endSize=12;startArrow=diamondThin;startSize=14;startFill=0;edgeStyle=orthogonalEdgeStyle;align=left;verticalAlign=bottom;rounded=0;fontColor=#000000;exitX=1;exitY=0.25;exitDx=0;exitDy=0;entryX=-0.027;entryY=0.138;entryDx=0;entryDy=0;entryPerimeter=0;" edge="1" parent="1" source="8" target="3">
                    <mxGeometry x="-1" y="3" relative="1" as="geometry">
                        <mxPoint x="190" y="70" as="sourcePoint"/>
                        <mxPoint x="270" y="72" as="targetPoint"/>
                    </mxGeometry>
                </mxCell>
                <mxCell id="32" value="" style="endArrow=block;endFill=0;endSize=12;html=1;rounded=0;fontColor=#000000;exitX=0.5;exitY=0;exitDx=0;exitDy=0;" edge="1" parent="1" source="11" target="6">
                    <mxGeometry width="160" relative="1" as="geometry">
                        <mxPoint x="310" y="290" as="sourcePoint"/>
                        <mxPoint x="470" y="290" as="targetPoint"/>
                    </mxGeometry>
                </mxCell>
                <mxCell id="33" value="" style="endArrow=block;endFill=0;endSize=12;html=1;rounded=0;fontColor=#000000;exitX=0;exitY=0.5;exitDx=0;exitDy=0;entryX=1;entryY=0.5;entryDx=0;entryDy=0;" edge="1" parent="1" source="15" target="3">
                    <mxGeometry width="160" relative="1" as="geometry">
                        <mxPoint x="345" y="260" as="sourcePoint"/>
                        <mxPoint x="344.8699999999999" y="202.35199999999998" as="targetPoint"/>
                    </mxGeometry>
                </mxCell>
                <mxCell id="34" value="BoardAnyCar" style="swimlane;fontStyle=1;align=center;verticalAlign=top;childLayout=stackLayout;horizontal=1;startSize=26;horizontalStack=0;resizeParent=1;resizeParentMax=0;resizeLast=0;collapsible=1;marginBottom=0;strokeColor=#666666;strokeWidth=3;fontColor=#333333;fillColor=#f5f5f5;" vertex="1" parent="1">
                    <mxGeometry x="490" y="440" width="170" height="200" as="geometry">
                        <mxRectangle x="110" y="90" width="120" height="30" as="alternateBounds"/>
                    </mxGeometry>
                </mxCell>
                <mxCell id="35" value="# driver: Driver*&#10;# passangers: Passanger[]&#10;# passangerLimit: int&#10;# safetyChildSeat: bool" style="text;strokeColor=#666666;fillColor=#f5f5f5;align=left;verticalAlign=top;spacingLeft=4;spacingRight=4;overflow=hidden;rotatable=0;points=[[0,0.5],[1,0.5]];portConstraint=eastwest;strokeWidth=3;fontColor=#333333;" vertex="1" parent="34">
                    <mxGeometry y="26" width="170" height="74" as="geometry"/>
                </mxCell>
                <mxCell id="36" value="+ BoardPassanger()&#10;+ BoardDriver()&#10;+ IsReady()&#10;+ PrintInfo()&#10;+ SetChildSafetySeat()&#10;+ GetChildSafetySeat()" style="text;strokeColor=#666666;fillColor=#f5f5f5;align=left;verticalAlign=top;spacingLeft=4;spacingRight=4;overflow=hidden;rotatable=0;points=[[0,0.5],[1,0.5]];portConstraint=eastwest;strokeWidth=3;fontColor=#333333;" vertex="1" parent="34">
                    <mxGeometry y="100" width="170" height="100" as="geometry"/>
                </mxCell>
                <mxCell id="37" value="" style="endArrow=block;endFill=0;endSize=12;html=1;rounded=0;fontColor=#000000;exitX=1;exitY=0.5;exitDx=0;exitDy=0;entryX=0;entryY=0.5;entryDx=0;entryDy=0;" edge="1" parent="1" source="22" target="35">
                    <mxGeometry width="160" relative="1" as="geometry">
                        <mxPoint x="370" y="330" as="sourcePoint"/>
                        <mxPoint x="363.24503311258286" y="228" as="targetPoint"/>
                    </mxGeometry>
                </mxCell>
                <mxCell id="38" value="" style="endArrow=block;endFill=0;endSize=12;html=1;rounded=0;fontColor=#000000;entryX=0.5;entryY=0;entryDx=0;entryDy=0;exitX=0.496;exitY=1.077;exitDx=0;exitDy=0;exitPerimeter=0;" edge="1" parent="1" source="19" target="34">
                    <mxGeometry width="160" relative="1" as="geometry">
                        <mxPoint x="520" y="370" as="sourcePoint"/>
                        <mxPoint x="303.24503311258286" y="238" as="targetPoint"/>
                    </mxGeometry>
                </mxCell>
            </root>
        </mxGraphModel>
    </diagram>
</mxfile>